<svg width="24" height="24" viewBox="0 0 24 24" fill="none" xmlns="http://www.w3.org/2000/svg">
<path d="M19.9999 5.00018H3.99991C2.89534 5.00018 1.99991 5.89561 1.99991 7.00018V17.0002C1.99991 18.1048 2.89534 19.0002 3.99991 19.0002H19.9999C21.1045 19.0002 21.9999 18.1048 21.9999 17.0002V7.00018C21.9999 5.89561 21.1045 5.00018 19.9999 5.00018Z" stroke="currentColor" stroke-width="1.75" stroke-linecap="round" stroke-linejoin="round"/>
<path d="M1.99991 9.99982H21.9999" stroke="currentColor" stroke-width="1.75" stroke-linecap="round" stroke-linejoin="round"/>
<path d="M7.00009 16.5C7.82852 16.5 8.50009 15.8284 8.50009 15C8.50009 14.1716 7.82852 13.5 7.00009 13.5C6.17166 13.5 5.50009 14.1716 5.50009 15C5.50009 15.8284 6.17166 16.5 7.00009 16.5Z" fill="currentColor"/>
<path d="M10.9999 15H16.9999" stroke="currentColor" stroke-width="1.75" stroke-linecap="round" stroke-linejoin="round"/>
</svg>
