<svg width="53" height="53" viewBox="0 0 53 53" fill="none" xmlns="http://www.w3.org/2000/svg">
<g clip-path="url(#clip0_66_6475)">
<circle cx="26.5" cy="26.5" r="26.5" fill="white"/>
<g style="mix-blend-mode:luminosity" opacity="0.5">
<path d="M42.7002 47.7036V47.7042C42.0798 48.2086 41.4364 48.6851 40.7707 49.1318C36.6215 51.9186 31.6292 53.5483 26.2573 53.5601H26.2002C20.8065 53.5601 15.7937 51.9285 11.6296 49.1318C10.9639 48.6851 10.3206 48.2086 9.7002 47.7042V47.7036C10.1518 45.8784 10.784 44.2902 11.6395 43.4347C14.1292 40.9444 17.0426 39.976 20.4851 39.4666H31.9152C35.3566 39.976 38.2712 40.9444 40.7608 43.4347C41.1703 43.8441 41.5289 44.4217 41.8403 45.1128C42.1803 45.8654 42.465 46.7519 42.7002 47.7036Z" fill="#303D89"/>
<path d="M31.9155 39.4666C31.9155 39.4666 30.2969 41.5722 26.2004 43.3863C22.104 41.5722 20.4854 39.4666 20.4854 39.4666C21.6232 38.7414 22.5072 37.6501 22.9824 36.4124L29.4172 36.4093C29.8924 37.6483 30.7771 38.7408 31.9155 39.4666Z" fill="#EFA18F"/>
<path d="M29.8937 37.3864C27.6164 38.2876 24.9365 38.0814 22.7368 36.967C22.8274 36.7859 22.9093 36.601 22.9819 36.4124L29.4166 36.4093C29.5463 36.7474 29.7063 37.075 29.8937 37.3864Z" fill="#E59689"/>
<path d="M15.697 22.4933C15.5146 21.621 15.3855 20.7382 15.3377 19.8442C15.1926 17.125 15.8955 14.239 17.8156 12.3077C20.2097 9.89806 23.9091 9.44208 27.3045 9.40237C28.523 9.3881 29.7917 9.4216 30.878 9.97375C31.9513 10.5203 32.7851 11.7214 32.5363 12.8952C33.6263 12.6545 34.8063 13.2352 35.5043 14.1236C36.2413 15.0641 36.5304 16.2794 36.6694 17.4662C36.8629 19.1146 36.8015 20.7903 36.4969 22.4207L35.7383 23.4681H16.608L15.697 22.4933Z" fill="#4F3535"/>
<path d="M38.3551 24.8363C38.2682 25.8283 38.1764 26.8427 37.7639 27.7491C37.5076 28.3105 37.082 28.8521 36.4815 28.9967C36.0894 29.0903 35.6384 28.9321 35.3834 28.6399C34.6048 31.3734 32.8181 34.3612 30.1156 35.875C30.1156 35.875 28.8879 36.5574 26.8989 36.5574C24.9099 36.5574 23.6809 35.8781 23.6809 35.8781C20.9773 34.3668 19.1887 31.3796 18.4088 28.6468C18.1532 28.9353 17.7047 29.0897 17.3163 28.9967C16.7158 28.8521 16.2902 28.3105 16.034 27.7491C15.6214 26.8427 15.5296 25.8283 15.4427 24.8363C15.3919 24.255 15.3422 23.6576 15.4998 23.0955C15.6338 22.6165 15.9527 22.1612 16.3963 21.9589C16.3963 21.9589 17.1972 21.534 18.2599 21.9589C18.2599 21.9589 18.2965 19.4612 19.6434 18.0045C19.6434 18.0045 27.0368 20.5044 33.427 17.9391C33.427 17.9391 34.9442 19.1882 35.3108 21.9589C35.3108 21.9589 36.0125 21.4986 37.1962 21.8863C37.7471 22.0272 38.1435 22.5452 38.298 23.0955C38.4556 23.6576 38.406 24.255 38.3551 24.8363Z" fill="#F7AD97"/>
<path d="M42.7004 47.7036V47.7043C42.08 48.2086 41.4367 48.6851 40.771 49.1318C36.6218 51.9186 31.6295 53.5484 26.2575 53.5602C20.7447 53.5484 15.632 51.8311 11.4189 48.9091C15.1537 50.9626 19.4444 52.1308 24.0073 52.1308C30.8987 52.1308 37.1665 49.4674 41.8406 45.1129C42.1805 45.8654 42.4653 46.752 42.7004 47.7036Z" fill="#24326B"/>
</g>
</g>
<defs>
<clipPath id="clip0_66_6475">
<rect width="53" height="53" rx="26.5" fill="white"/>
</clipPath>
</defs>
</svg>
